<?xml version="1.0" standalone="no"?>
<!DOCTYPE svg PUBLIC "-//W3C//DTD SVG 20010904//EN"
 "http://www.w3.org/TR/2001/REC-SVG-20010904/DTD/svg10.dtd">
<svg version="1.0" xmlns="http://www.w3.org/2000/svg"
 width="800.000000pt" height="800.000000pt" viewBox="0 0 800.000000 800.000000"
 preserveAspectRatio="xMidYMid meet">
<metadata>
Created by potrace 1.11, written by Peter Selinger 2001-2013
</metadata>
<g transform="translate(0.000000,800.000000) scale(0.100000,-0.100000)"
fill="#000000" stroke="none">
<path d="M1100 7990 c-14 -5 -68 -21 -120 -36 -52 -15 -99 -30 -103 -34 -4 -4
-8 -452 -8 -995 0 -1036 0 -1028 -43 -1064 -21 -18 -202 -19 -234 -2 -12 6
-30 24 -40 38 -16 25 -17 92 -22 923 l-5 895 -96 -95 c-115 -114 -201 -229
-269 -360 -45 -88 -101 -235 -114 -300 -3 -14 -7 -35 -10 -47 -2 -11 -8 -43
-12 -70 -3 -26 -9 -57 -12 -68 -3 -11 -8 -270 -9 -576 -4 -503 -2 -557 12
-563 11 -4 14 -2 9 7 -6 9 -4 9 7 2 16 -12 68 -13 86 -2 7 5 13 5 13 0 0 -10
302 -9 318 1 7 4 12 4 12 -1 0 -9 183 -8 198 1 6 3 13 3 16 -2 6 -10 67 -9 84
2 7 4 12 4 12 -1 0 -10 302 -9 318 1 7 4 12 4 12 -1 0 -9 183 -8 198 1 6 3 13
3 16 -2 6 -10 67 -9 84 2 7 4 12 4 12 -1 0 -10 302 -9 318 1 7 4 12 4 12 -1 0
-9 183 -8 198 1 6 3 13 3 16 -2 6 -10 67 -9 84 2 7 4 12 4 12 -1 0 -4 56 -8
125 -8 l126 0 82 80 c45 45 120 111 167 147 96 74 282 198 298 198 6 0 12 3
14 8 3 7 231 122 243 122 4 0 21 7 38 15 46 21 231 84 268 90 18 3 35 8 39 10
3 2 17 6 31 9 13 3 35 8 49 11 32 7 74 14 125 21 22 2 46 7 53 9 65 23 478 23
602 1 14 -3 41 -7 60 -10 336 -51 672 -187 982 -398 73 -50 72 -49 163 -123
39 -32 100 -87 136 -123 67 -64 67 -64 126 -65 32 0 64 3 71 7 7 4 12 3 12 -2
0 -9 64 -7 80 3 5 3 11 2 14 -3 6 -10 67 -9 84 2 7 4 12 4 12 -1 0 -4 64 -7
142 -5 150 3 170 2 203 -1 11 -2 35 0 52 4 18 4 31 4 29 0 -5 -8 102 -6 110 2
3 3 16 3 28 -1 27 -9 179 -8 194 2 7 4 12 3 12 -2 0 -9 64 -7 80 3 5 3 11 2
14 -3 6 -10 67 -9 84 2 7 4 12 4 12 -1 0 -4 64 -7 142 -5 150 3 170 2 203 -1
11 -2 35 0 52 4 18 4 31 4 29 0 -5 -8 102 -6 110 2 3 3 16 2 28 -2 22 -8 98
-6 121 3 8 3 16 2 19 -2 6 -10 68 -8 84 2 7 4 12 4 12 -1 0 -4 42 -8 92 -7
l93 1 0 594 c0 653 2 633 -66 844 -103 323 -364 623 -676 779 -119 59 -273
112 -358 122 -16 2 -41 7 -55 11 -14 4 -1081 9 -2372 10 -2239 3 -2348 3
-2349 -14 0 -10 -1 -479 -1 -1043 l0 -1025 -26 -27 c-29 -32 -70 -42 -164 -41
-80 1 -122 21 -149 73 -18 33 -19 79 -19 1057 l0 1023 -134 0 -133 0 -1 -1036
c0 -764 -3 -1042 -12 -1063 -17 -41 -46 -52 -141 -55 -98 -2 -144 15 -181 66
l-23 33 0 1022 c0 562 -2 1023 -5 1026 -3 2 -16 1 -30 -3z m6025 -527 c47 -25
85 -64 111 -113 18 -33 19 -71 22 -598 2 -355 -1 -576 -7 -600 -15 -52 -56
-112 -99 -143 -57 -40 -117 -53 -232 -48 -8 0 -24 0 -35 -1 -11 -1 -72 -1
-135 0 -63 1 -119 1 -125 0 -5 -1 -14 -1 -20 0 -5 1 -39 1 -75 0 -65 -2 -90
-1 -142 4 -16 1 -28 -1 -28 -6 0 -4 -6 -5 -14 -2 -22 8 -116 10 -116 2 0 -4
-6 -5 -13 -3 -22 9 -177 10 -177 2 0 -5 -4 -6 -8 -3 -5 3 -31 7 -58 10 -101
10 -201 93 -229 190 -20 73 -21 1084 0 1152 23 78 85 141 170 172 21 7 208 10
600 9 563 -2 570 -2 610 -24z"/>
<path d="M6201 7179 c-79 -23 -147 -88 -175 -165 -19 -56 -19 -518 0 -585 17
-58 78 -128 140 -159 47 -25 50 -25 323 -25 152 0 285 4 296 9 11 5 23 9 26 8
15 -3 101 84 122 122 21 40 22 51 22 336 l0 295 -28 47 c-34 58 -81 95 -143
114 -56 17 -526 19 -583 3z"/>
<path d="M3938 6075 c-2 -1 -48 -5 -103 -9 -55 -3 -109 -8 -120 -10 -11 -2
-40 -7 -65 -11 -71 -11 -229 -52 -311 -80 -91 -32 -88 -31 -119 -41 -46 -14
-267 -130 -329 -172 -33 -23 -65 -42 -70 -42 -5 0 -11 -3 -13 -7 -1 -5 -48
-44 -102 -87 -200 -160 -333 -314 -493 -571 -31 -50 -123 -248 -151 -325 -31
-85 -77 -246 -87 -307 -10 -61 -17 -113 -31 -212 -12 -89 -5 -354 12 -466 3
-22 8 -53 10 -70 2 -16 18 -86 35 -155 144 -584 547 -1078 1094 -1345 154 -75
323 -135 445 -159 14 -3 50 -10 80 -15 30 -6 64 -13 76 -15 43 -9 204 -19 303
-21 143 -1 343 22 479 56 42 11 85 21 95 24 35 8 62 16 82 24 11 5 58 23 105
41 500 195 923 604 1133 1095 72 169 137 403 152 545 3 30 8 73 10 95 6 51 7
332 1 365 -2 14 -7 50 -11 80 -5 50 -35 204 -49 258 -3 12 -8 30 -10 40 -2 9
-17 56 -34 103 -137 395 -366 709 -717 987 -38 30 -195 127 -270 167 -176 93
-460 190 -620 211 -27 3 -59 8 -70 10 -46 9 -330 25 -337 19z m137 -801 c75
-2 162 -15 240 -35 61 -16 159 -50 173 -61 6 -6 12 -8 12 -4 0 7 148 -71 171
-90 8 -8 19 -14 22 -14 15 0 137 -100 203 -166 129 -130 226 -281 289 -448
148 -393 88 -835 -162 -1184 -42 -60 -164 -188 -227 -240 -56 -47 -173 -120
-246 -154 -95 -45 -107 -50 -155 -63 -16 -4 -36 -12 -42 -18 -7 -5 -13 -7 -13
-4 0 3 -26 -2 -57 -10 -32 -8 -74 -17 -93 -18 -19 -2 -35 -4 -35 -6 0 -9 -286
-4 -347 7 -85 15 -192 40 -223 53 -51 21 -80 33 -85 33 -3 0 -11 4 -17 10 -7
6 -13 7 -13 3 0 -5 -8 -2 -17 6 -10 8 -36 23 -58 34 -37 18 -93 53 -105 65 -3
3 -23 17 -45 31 -40 26 -191 171 -230 219 -53 67 -76 102 -119 179 -44 80
-110 240 -120 292 -2 13 -9 44 -15 69 -25 102 -32 278 -17 412 14 131 84 342
147 450 16 27 29 51 29 54 0 14 142 188 195 239 74 71 134 123 143 125 4 0 16
7 27 15 68 49 221 130 265 140 8 2 40 13 71 24 31 11 69 23 85 26 16 2 40 7
54 11 36 8 86 14 163 18 37 2 70 6 74 9 3 4 11 3 17 0 6 -4 33 -8 61 -9z"/>
<path d="M22 5282 l-22 -3 3 -2057 c3 -2273 -2 -2075 64 -2287 124 -396 458
-730 876 -874 48 -17 88 -30 90 -29 1 1 27 -5 57 -13 47 -12 487 -14 2915 -14
l2860 0 83 23 c387 106 678 324 871 650 65 109 138 306 157 421 3 18 9 43 12
55 4 11 8 945 9 2074 l3 2052 -22 1 c-47 1 -143 1 -153 -1 -5 -1 -14 -1 -20 0
-25 5 -254 2 -264 -4 -6 -4 -11 -4 -11 1 0 10 -262 9 -278 -1 -7 -4 -12 -3
-12 2 0 4 -23 6 -50 2 -28 -4 -50 -4 -50 -1 0 8 -106 5 -119 -3 -6 -4 -11 -4
-11 1 0 10 -222 9 -238 -1 -7 -4 -12 -4 -12 1 0 9 -150 9 -174 0 -9 -4 -16 -3
-16 1 0 9 -263 7 -278 -2 -7 -4 -12 -3 -12 2 0 4 -22 6 -50 2 -27 -4 -50 -4
-50 -1 0 8 -138 6 -146 -2 -4 -3 -14 -3 -23 2 -9 4 -27 5 -40 2 -21 -6 -22 -8
-10 -22 17 -18 23 -28 88 -139 55 -94 112 -215 143 -299 10 -31 23 -65 28 -76
28 -61 91 -324 106 -435 2 -14 7 -50 11 -80 10 -75 10 -427 0 -520 -30 -277
-116 -557 -251 -815 -127 -243 -257 -417 -455 -609 -99 -96 -95 -93 -191 -167
-273 -211 -624 -374 -940 -438 -108 -22 -152 -29 -230 -38 -81 -10 -486 -9
-550 1 -30 4 -68 10 -85 12 -16 2 -41 6 -55 9 -31 7 -67 14 -103 20 -81 15
-320 91 -378 121 -15 7 -29 10 -33 7 -3 -4 -6 -1 -6 5 0 7 -5 12 -11 12 -6 0
-52 21 -102 47 -51 25 -105 53 -122 61 -16 9 -32 18 -35 22 -3 4 -21 15 -40
26 -19 10 -39 22 -45 27 -5 4 -55 41 -110 82 -135 100 -190 149 -320 286 -83
88 -223 273 -290 383 -43 73 -134 251 -162 321 -33 83 -97 280 -108 332 -1 10
-11 54 -20 98 -9 44 -19 100 -22 125 -2 25 -9 72 -13 105 -8 59 -6 435 3 485
2 14 8 52 12 85 4 33 9 65 10 70 1 6 5 28 10 50 50 256 160 540 281 728 24 37
44 72 44 77 0 6 5 10 10 10 11 0 14 30 3 31 -19 1 -279 0 -288 -1 -5 -2 -14
-1 -20 0 -12 2 -286 2 -300 0 -5 -2 -14 -1 -20 0 -12 2 -286 2 -300 0 -5 -2
-14 -1 -20 0 -12 2 -286 2 -300 0 -5 -2 -14 -1 -20 0 -12 2 -286 2 -300 0 -5
-2 -14 -1 -20 0 -12 2 -286 2 -300 0 -5 -2 -14 -1 -20 0 -19 4 -80 5 -103 2z"/>
</g>
</svg>
